<?xml version="1.0" encoding="UTF-8" standalone="no"?>
<svg width="96px" height="96px" viewBox="0 0 96 96" version="1.1" xmlns="http://www.w3.org/2000/svg" xmlns:xlink="http://www.w3.org/1999/xlink">
    <!-- Generator: Sketch 3.8.2 (29753) - http://www.bohemiancoding.com/sketch -->
    <title>Busy</title>
    <desc>Created with Sketch.</desc>
    <defs></defs>
    <g id="Logos/Features" stroke="none" stroke-width="1" fill="none" fill-rule="evenodd">
        <g id="Busy">
            <g transform="translate(20.000000, 3.000000)">
                <path d="M7.57364175,23.9369256 C8.78266349,24.3975088 9.93602125,24.8363232 11.6771907,25.4997006 C9.85363856,25.7792586 8.61567154,25.968304 7.26637655,26.175681 C6.63180713,29.3046684 6.20430773,32.4817763 5.30923085,35.5225425 C4.49319684,38.2940622 3.327593,40.9865266 2.02505576,43.5861868 C0.716952122,46.1973044 0,47.90215 0,47.90215 C0,47.90215 15.3343145,39.426043 28.1604098,42.6524173 C48.5846391,47.7910142 55.2387118,47.2593957 55.2387118,47.2593957 C48.3708894,35.2796478 40.4020333,23.8532873 30.0908368,13.7067067 C25.2458436,8.93818039 19.9388393,4.63711176 13.6076177,1.44396359 C12.7058611,0.989108966 11.7940851,0.514776944 10.8355512,0.205429973 C8.7715307,-0.460238879 7.05151357,0.546857371 7.12610331,2.43158243 C7.26081015,5.88481121 7.5157512,9.34147718 7.72838762,12.9241734 C8.84834699,13.3079928 9.94492749,13.6837921 11.3732653,14.1741643 C9.98055244,14.5018429 8.84723371,14.7687979 7.56918863,15.0689791 C7.57141519,17.9974637 7.57252847,20.8526217 7.57364175,23.9369256" id="Fill-22" fill="#000000"></path>
                <path d="M0,50.9816143 C0,50.9816143 15.3343145,42.5055073 28.1604098,45.7330274 C48.5846391,50.8704785 55.2387118,50.33886 55.2387118,50.33886 L30.9625348,87.9909693 C29.9650362,89.5388499 27.7774416,89.5961364 26.70424,88.1043965 L0,50.9816143 Z" id="Fill-24" fill="#D0011B"></path>
            </g>
        </g>
    </g>
</svg>