<?xml version="1.0" encoding="UTF-8" standalone="no"?>
<svg width="99px" height="32px" viewBox="0 0 99 32" version="1.1" xmlns="http://www.w3.org/2000/svg" xmlns:xlink="http://www.w3.org/1999/xlink">
    <!-- Generator: Sketch 3.8.2 (29753) - http://www.bohemiancoding.com/sketch -->
    <title>Barshark</title>
    <desc>Created with Sketch.</desc>
    <defs></defs>
    <g id="Logos/Features" stroke="none" stroke-width="1" fill="none" fill-rule="evenodd">
        <g id="Barshark" fill="#FFFFFF">
            <g transform="translate(1.000000, 1.000000)">
                <path d="M8.35158723,12.2689143 C8.35158723,10.9404248 8.14116373,9.9691642 7.72031673,9.35800167 C7.30090118,8.74683913 6.67392504,8.43982321 5.84081976,8.43982321 C4.72571836,8.43982321 3.95702844,8.89747779 3.5376129,9.81422158 L3.5376129,15.0033645 C3.96561715,15.9272816 4.74146434,16.3892401 5.86515445,16.3892401 C6.99743328,16.3892401 7.74178851,15.8297251 8.0967887,14.7121298 C8.26713154,14.1770039 8.35158723,13.3621205 8.35158723,12.2689143 L8.35158723,12.2689143 Z M11.8557826,12.5242827 C11.8557826,14.6303545 11.407738,16.2730331 10.5102174,17.4523186 C9.61269677,18.631604 8.36017594,19.2212468 6.75122347,19.2212468 C5.32835981,19.2212468 4.19178663,18.6746437 3.34293537,17.5800028 L3.18547561,18.9773556 L0.0319860342,18.9773556 L0.0319860342,0.309639948 L3.5376129,0.309639948 L3.5376129,7.00660404 C4.34495203,6.05829785 5.40852115,5.58342743 6.72688878,5.58342743 C8.32725253,5.58342743 9.58263627,6.17307016 10.4916085,7.35235561 C11.4020122,8.53164106 11.8557826,10.1901009 11.8557826,12.3291698 L11.8557826,12.5242827 Z" id="Fill-1"></path>
                <path d="M18.7201693,16.5351444 C19.2369236,16.5351444 19.7150287,16.4203721 20.1516217,16.1893928 C20.5882147,15.9584136 20.9117229,15.6485283 21.120715,15.2583025 L21.120715,12.9987227 L19.8109361,12.9987227 C18.0574069,12.9987227 17.1240999,13.6055813 17.0095838,14.8207331 L16.9981321,15.0273232 C16.9981321,15.4648926 17.1512975,15.8264254 17.4590598,16.1090522 C17.7668221,16.3931137 18.1862376,16.5351444 18.7201693,16.5351444 L18.7201693,16.5351444 Z M21.6188604,18.9783599 C21.4571063,18.662736 21.3397272,18.2696409 21.2667231,17.7990744 C20.4178719,18.7473806 19.3142221,19.2208164 17.9557738,19.2208164 C16.6703295,19.2208164 15.605329,18.8478064 14.7607721,18.103221 C13.9162152,17.357201 13.4939367,16.4175028 13.4939367,15.2826916 C13.4939367,13.8896427 14.0092596,12.819391 15.0399053,12.0748056 C16.070551,11.3287856 17.5606929,10.9529063 19.5088996,10.9442984 L21.120715,10.9442984 L21.120715,10.1911051 C21.120715,9.58281192 20.9661181,9.09646427 20.6540615,8.7320622 C20.3434363,8.36766013 19.8524482,8.18545909 19.181097,8.18545909 C18.5913386,8.18545909 18.1275481,8.32748982 17.7925882,8.61011662 C17.4576284,8.89417808 17.288717,9.28296927 17.288717,9.77792484 L13.7845216,9.77792484 C13.7845216,9.01612366 14.0192798,8.31027397 14.4873647,7.66324509 C14.9568811,7.01478156 15.6196435,6.50547945 16.4770835,6.13677342 C17.333092,5.76806738 18.295028,5.58443169 19.3628915,5.58443169 C20.9804326,5.58443169 22.263014,5.99187338 23.2134983,6.8053221 C24.1625513,7.62020548 24.6377935,8.76505924 24.6377935,10.2398834 L24.6377935,15.9397631 C24.6463822,17.1879119 24.8195879,18.1319141 25.1602736,18.7717697 L25.1602736,18.9783599 L21.6188604,18.9783599 Z" id="Fill-3"></path>
                <path d="M34.7036234,9.12099685 C34.2269498,9.05643743 33.8061028,9.02344039 33.4425139,9.02344039 C32.116989,9.02344039 31.2480974,9.4739217 30.8344076,10.3734496 L30.8344076,18.9785033 L27.3302122,18.9785033 L27.3302122,5.82703165 L30.6411616,5.82703165 L30.7385003,7.39510829 C31.4413434,6.18712977 32.4161625,5.58457516 33.6600946,5.58457516 C34.0494497,5.58457516 34.4130386,5.6362227 34.7522928,5.74238708 L34.7036234,9.12099685 Z" id="Fill-5"></path>
                <path d="M43.495747,15.3439513 C43.495747,14.9149898 43.2838921,14.5764115 42.8587507,14.3296511 C42.4350408,14.0814559 41.7536695,13.8605193 40.8160682,13.666841 C37.695502,13.0097695 36.1352189,11.6812801 36.1352189,9.67993799 C36.1352189,8.51356442 36.6176184,7.53943447 37.5838487,6.75754813 C38.5500791,5.97566179 39.8126201,5.5840013 41.3729031,5.5840013 C43.0391137,5.5840013 44.3703644,5.97709645 45.3695182,6.76328675 C46.3672405,7.54947705 46.8668174,8.56951592 46.8668174,9.82627268 L43.3626219,9.82627268 C43.3626219,9.32414384 43.2008678,8.90809422 42.8773596,8.5795585 C42.5538514,8.25245742 42.0485487,8.08747223 41.3614515,8.08747223 C40.7716931,8.08747223 40.3150598,8.22232969 39.9915516,8.48917531 C39.6680434,8.75602092 39.5062892,9.09603388 39.5062892,9.51064883 C39.5062892,9.89944002 39.6895152,10.2121946 40.0573984,10.4517817 C40.4252817,10.6913689 41.046532,10.8979591 41.919718,11.0715522 C42.7929039,11.24658 43.5286704,11.4431275 44.1270175,11.6611949 C45.9778854,12.3412208 46.9040351,13.5205063 46.9040351,15.1976166 C46.9040351,16.3969872 46.3901437,17.3682479 45.3637924,18.1085292 C44.3360096,18.8502453 43.0104847,19.2218206 41.3857862,19.2218206 C40.2864308,19.2218206 39.3101803,19.025273 38.4570347,18.6321779 C37.603889,18.2390827 36.9354008,17.6996529 36.4501384,17.015323 C35.9648761,16.3309932 35.7229606,15.5907118 35.7229606,14.7973482 L39.0453616,14.7973482 C39.0768535,15.4214226 39.3073174,15.8991623 39.7367531,16.2305674 C40.1647573,16.5634071 40.7387697,16.7298269 41.4587903,16.7298269 C42.1301414,16.7298269 42.6368756,16.6021427 42.9804242,16.3467743 C43.3239727,16.091406 43.495747,15.7571316 43.495747,15.3439513" id="Fill-7"></path>
                <path d="M52.5788849,7.26154202 C53.5093289,6.14394669 54.6773941,5.58443169 56.0830803,5.58443169 C58.9288076,5.58443169 60.3731431,7.24145687 60.4132237,10.5555072 L60.4132237,18.9783599 L56.9075969,18.9783599 L56.9075969,10.6530637 C56.9075969,9.89843576 56.7458428,9.34179008 56.423766,8.98169197 C56.1002577,8.6201592 55.5620316,8.44082747 54.8105191,8.44082747 C53.7841678,8.44082747 53.0398126,8.83822658 52.5788849,9.63159015 L52.5788849,18.9783599 L49.0746895,18.9783599 L49.0746895,0.309209552 L52.5788849,0.309209552 L52.5788849,7.26154202 Z" id="Fill-9"></path>
                <path d="M67.7618708,16.5351444 C68.2786251,16.5351444 68.7567302,16.4203721 69.1933232,16.1893928 C69.6299161,15.9584136 69.9534244,15.6485283 70.1624164,15.2583025 L70.1624164,12.9987227 L68.8526375,12.9987227 C67.0991083,12.9987227 66.1658014,13.6055813 66.0512852,14.8207331 L66.0398336,15.0273232 C66.0398336,15.4648926 66.192999,15.8264254 66.5007612,16.1090522 C66.8085235,16.3931137 67.227939,16.5351444 67.7618708,16.5351444 L67.7618708,16.5351444 Z M70.6605618,18.9783599 C70.4988077,18.662736 70.3814286,18.2696409 70.3084246,17.7990744 C69.4595733,18.7473806 68.3559235,19.2208164 66.9974752,19.2208164 C65.712031,19.2208164 64.6470304,18.8478064 63.8024735,18.103221 C62.9579166,17.357201 62.5356382,16.4175028 62.5356382,15.2826916 C62.5356382,13.8896427 63.050961,12.819391 64.0816067,12.0748056 C65.1122524,11.3287856 66.6023944,10.9529063 68.550601,10.9442984 L70.1624164,10.9442984 L70.1624164,10.1911051 C70.1624164,9.58281192 70.0078196,9.09646427 69.6957629,8.7320622 C69.3851378,8.36766013 68.8941496,8.18545909 68.2227984,8.18545909 C67.6330401,8.18545909 67.1692495,8.32748982 66.8342896,8.61011662 C66.4993298,8.89417808 66.3304184,9.28296927 66.3304184,9.77792484 L62.826223,9.77792484 C62.826223,9.01612366 63.0609812,8.31027397 63.5290661,7.66324509 C63.9985825,7.01478156 64.6613449,6.50547945 65.5187849,6.13677342 C66.3747934,5.76806738 67.3367294,5.58443169 68.4045929,5.58443169 C70.0221341,5.58443169 71.3047154,5.99187338 72.2551998,6.8053221 C73.2042527,7.62020548 73.6794949,8.76505924 73.6794949,10.2398834 L73.6794949,15.9397631 C73.6880836,17.1879119 73.8612893,18.1319141 74.201975,18.7717697 L74.201975,18.9783599 L70.6605618,18.9783599 Z" id="Fill-11"></path>
                <path d="M83.7453248,9.12099685 C83.2686512,9.05643743 82.8478042,9.02344039 82.4842153,9.02344039 C81.1586904,9.02344039 80.2897988,9.4739217 79.8761091,10.3734496 L79.8761091,18.9785033 L76.3719137,18.9785033 L76.3719137,5.82703165 L79.682863,5.82703165 L79.7802018,7.39510829 C80.4830449,6.18712977 81.4578639,5.58457516 82.7017961,5.58457516 C83.0911511,5.58457516 83.45474,5.6362227 83.7939942,5.74238708 L83.7453248,9.12099685 Z" id="Fill-13"></path>
                <polygon id="Fill-15" points="90.1968807 13.7031377 88.9357711 14.9670678 88.9357711 18.9783599 85.4315757 18.9783599 85.4315757 0.309209552 88.9357711 0.309209552 88.9357711 10.6530637 89.6142796 9.77792484 92.9738983 5.82688819 97.1823683 5.82688819 92.4399665 11.3087005 97.5946265 18.9783599 93.567951 18.9783599"></polygon>
                <path d="M64.0929152,4.43053961 C64.3190847,4.49222973 64.5338025,4.55105054 64.8587422,4.64143373 C64.5338025,4.71890504 64.3119274,4.77198723 64.0714434,4.82937338 C64.0041652,5.39032303 63.9755361,5.95701129 63.8610199,6.50648371 C63.7550924,7.0071779 63.5861811,7.49926416 63.3900721,7.97843854 C63.1939631,8.45904757 63.3514229,8.59103573 63.3514229,8.59103573 C63.3514229,8.59103573 65.7075935,7.51504535 68.1009819,7.4017077 C70.6790276,7.27976213 73.2985854,8.11042669 73.0681216,7.78619493 C71.6438265,5.78485283 70.0277167,3.89828304 68.0079374,2.27425491 C67.0588845,1.51101907 66.0339646,0.836731766 64.8401333,0.374773232 C64.6697905,0.308779156 64.4980162,0.239915772 64.3205161,0.199745465 C63.9368869,0.115100889 63.6405763,0.320256387 63.6835198,0.650226768 C63.7608183,1.25708534 63.8595885,1.8610746 63.9526329,2.48945298 C64.1616249,2.53823121 64.3648912,2.58700944 64.6311413,2.65156886 C64.3835,2.73047482 64.1830967,2.7964689 63.9569272,2.86963625 C64.0013023,3.38467697 64.0456773,3.88680581 64.0929152,4.43053961" id="Fill-17"></path>
                <path d="M0.12889536,22.796376 C1.20391609,23.1185767 2.24458197,23.4573004 3.35968337,23.7617978 C6.53893909,24.6269007 10.133316,25.0883676 14.0769673,25.1934074 C19.5265065,25.3385747 24.8200173,25.0411587 29.9560685,24.4829136 C35.8422006,23.8432331 41.6538972,23.1197569 47.4784769,22.413984 C53.5406777,21.6775253 59.7317093,21.1723902 66.2204829,21.2585464 C79.1880099,21.4308588 88.652773,23.6921647 95.1343893,27.6801357 C96.0433616,28.239561 96.7247329,28.8461953 97.5048745,29.4327657 C97.5878987,29.4953175 97.6279794,29.5649506 97.5592697,29.6593684 C96.3640069,29.2274071 95.1930789,28.7860039 93.9706186,28.3634844 C90.6339031,27.209227 87.0151915,26.2024974 82.62779,25.6112061 C76.2478067,24.750824 69.882138,24.7307603 63.5393726,25.5156081 C57.0563248,26.3181592 50.6104947,27.1596577 44.0845034,27.9161801 C41.074159,28.2655259 37.9392783,28.5039308 34.8115549,28.7081093 C28.4172572,29.1235475 22.3636451,28.5346166 16.5118678,27.6093223 C10.0860781,26.5919708 4.66373648,25.0989896 0.483895548,23.0524842 C0.32786724,22.9757698 0.18329055,22.8966949 0.0329880508,22.8188002 C0.064480003,22.8105387 0.0974034076,22.8034573 0.12889536,22.796376" id="Fill-19"></path>
            </g>
        </g>
    </g>
</svg>